<?xml version="1.0" standalone="no"?>
<!DOCTYPE svg PUBLIC "-//W3C//DTD SVG 20010904//EN"
 "http://www.w3.org/TR/2001/REC-SVG-20010904/DTD/svg10.dtd">
<svg version="1.0" xmlns="http://www.w3.org/2000/svg"
 width="700.000000pt" height="700.000000pt" viewBox="0 0 700.000000 700.000000"
 preserveAspectRatio="xMidYMid meet">
<metadata>
Created by potrace 1.11, written by Peter Selinger 2001-2013
</metadata>
<g transform="translate(0.000000,700.000000) scale(0.100000,-0.100000)"
fill="#000000" stroke="none">
<path d="M2085 6993 c-107 -24 -243 -85 -342 -155 -197 -139 -364 -375 -388
-549 -8 -60 -9 -3900 -1 -3938 31 -139 121 -287 261 -427 110 -110 172 -151
308 -204 57 -22 111 -46 120 -53 18 -13 13 -21 -839 -1303 -129 -193 -234
-354 -234 -358 0 -3 143 -6 318 -6 l317 0 55 80 c30 44 100 146 155 225 55 80
145 210 200 290 55 80 136 197 180 260 44 63 109 156 143 207 l64 93 1091 0
c601 -1 1097 -4 1104 -8 7 -4 45 -56 86 -115 107 -156 450 -652 523 -757 35
-50 91 -132 126 -182 l62 -93 318 0 c175 0 318 3 318 6 0 9 -224 349 -232 352
-5 2 -8 8 -8 12 0 5 -44 76 -98 157 -54 81 -141 213 -194 293 -52 80 -171 260
-263 400 -295 447 -285 430 -272 451 7 11 16 19 22 19 22 0 243 115 315 163
159 108 235 198 297 354 72 182 67 24 68 2133 0 1042 -3 1916 -7 1942 -16 111
-117 290 -231 407 -117 121 -294 238 -427 284 l-65 22 -1415 1 c-778 1 -1424
0 -1435 -3z m1983 -223 c23 -17 42 -38 43 -48 1 -9 1 -109 1 -220 1 -227 -3
-242 -62 -271 -32 -16 -82 -17 -551 -16 l-515 1 -32 22 c-17 13 -42 37 -54 55
-22 30 -23 41 -24 207 0 96 3 189 8 206 4 18 24 46 43 63 l36 31 533 0 533 0
41 -30z m802 -777 c135 -67 229 -170 260 -282 16 -62 13 -935 -5 -984 -29 -84
-135 -196 -230 -245 -100 -50 -50 -49 -1395 -48 -1204 1 -1257 2 -1310 20 -30
11 -74 26 -96 34 -49 16 -133 87 -173 145 -15 23 -38 69 -51 102 -22 59 -23
68 -23 480 0 314 3 434 13 475 22 91 120 222 211 280 96 62 16 59 1434 57
l1300 -2 65 -32z m-2484 -2984 c192 -47 311 -198 312 -395 0 -130 -38 -231
-121 -317 -178 -185 -476 -168 -630 36 -64 85 -98 244 -77 359 27 139 146 270
285 312 55 17 172 19 231 5z m2448 -4 c176 -53 288 -207 289 -395 0 -180 -87
-332 -231 -402 -59 -28 -78 -32 -164 -35 -143 -4 -236 33 -325 130 -78 85
-115 184 -115 308 0 186 109 333 290 389 67 21 193 24 256 5z"/>
</g>
</svg>
